<svg xmlns="http://www.w3.org/2000/svg" viewBox="0 0 200 200" width="200" height="200">
  <!-- White background -->
  <rect width="200" height="200" fill="#ffffff"/>
  
  <!-- BRAINX Logo - Blue 3D 'B' shape (exact match) -->
  <g transform="translate(100,100)">
    <!-- 3D Isometric B shape -->
    <g transform="translate(-40,-50) scale(1.2)">
      <!-- Main B structure - Left vertical bar -->
      <path d="M0,0 L20,0 L20,80 L0,80 Z" fill="#5B9BD5"/>
      
      <!-- Top section of B -->
      <path d="M20,0 L50,0 Q65,0 65,15 Q65,25 55,30 L20,30 Z" fill="#5B9BD5"/>
      
      <!-- Middle section of B -->
      <path d="M20,30 L55,30 Q70,30 70,45 Q70,55 55,55 L20,55 Z" fill="#5B9BD5"/>
      
      <!-- Bottom section of B -->
      <path d="M20,55 L55,55 Q70,55 70,70 Q70,80 55,80 L20,80 Z" fill="#5B9BD5"/>
      
      <!-- 3D Top faces -->
      <path d="M0,0 L10,-10 L30,-10 L20,0 Z" fill="#7FB3D8"/>
      <path d="M20,0 L30,-10 L60,-10 Q75,-10 75,5 Q75,15 65,20 L50,0 Z" fill="#7FB3D8"/>
      <path d="M20,30 L55,30 L65,20 Q75,15 75,5 Q75,-10 60,-10 L55,20 L20,30 Z" fill="#7FB3D8"/>
      
      <!-- 3D Right faces -->
      <path d="M50,0 L60,-10 L60,20 L50,30 Z" fill="#4A7FA3"/>
      <path d="M55,30 L65,20 L65,40 L55,55 Z" fill="#4A7FA3"/>
      <path d="M55,55 L65,45 L65,70 L55,80 Z" fill="#4A7FA3"/>
      <path d="M20,0 L30,-10 L30,70 L20,80 Z" fill="#4A7FA3"/>
      
      <!-- Inner curves for B shape -->
      <ellipse cx="50" cy="15" rx="8" ry="6" fill="#ffffff" opacity="0.3"/>
      <ellipse cx="52" cy="42" rx="9" ry="6" fill="#ffffff" opacity="0.3"/>
      <ellipse cx="52" cy="67" rx="9" ry="6" fill="#ffffff" opacity="0.3"/>
      
      <!-- Highlights for 3D effect -->
      <path d="M5,5 L15,5 L15,75 L5,75 Z" fill="#87C5E8" opacity="0.6"/>
      <path d="M25,5 L45,5 Q58,5 58,18 Q58,25 50,28 L25,28 Z" fill="#87C5E8" opacity="0.6"/>
    </g>
  </g>
</svg> 